<svg xmlns="http://www.w3.org/2000/svg" version="1.1" width="280" height="100">
	<text x="238" y="60" style="font-family:Arial;font-size:12px;text-anchor:start" dominant-baseline="middle" transform="rotate(0, 238, 60)">-</text>
	<line x1="210" y1="60" x2="227" y2="60" style="stroke:rgb(0, 0, 0);stroke-linecap:square;stroke-width:2"/>
	<ellipse cx="230" cy="60" rx="3" ry="3" style="fill-opacity:0;fill:rgb(0, 0, 0);stroke:rgb(0, 0, 0);stroke-width:2"/>
	<text x="42" y="60" style="font-family:Arial;font-size:12px;text-anchor:end" dominant-baseline="middle" transform="rotate(0, 42, 60)">+</text>
	<line x1="53" y1="60" x2="70" y2="60" style="stroke:rgb(0, 0, 0);stroke-linecap:square;stroke-width:2"/>
	<ellipse cx="50" cy="60" rx="3" ry="3" style="fill-opacity:0;fill:rgb(0, 0, 0);stroke:rgb(0, 0, 0);stroke-width:2"/>
	<line x1="120" y1="60" x2="160" y2="60" style="stroke:rgb(0, 0, 0);stroke-linecap:square;stroke-width:2"/>
	<line x1="160" y1="60" x2="181" y2="60" style="stroke:rgb(0, 0, 0);stroke-linecap:square;stroke-width:2"/>
	<line x1="189" y1="60" x2="210" y2="60" style="stroke:rgb(0, 0, 0);stroke-linecap:square;stroke-width:2"/>
	<line x1="181" y1="46" x2="181" y2="74" style="stroke:rgb(0, 0, 0);stroke-linecap:square;stroke-width:2"/>
	<line x1="189" y1="46" x2="189" y2="74" style="stroke:rgb(0, 0, 0);stroke-linecap:square;stroke-width:2"/>
	<text x="185" y="40" style="font-family:Arial;font-size:11px;text-anchor:middle" dominant-baseline="baseline" transform="rotate(0, 185, 40)">C2</text>
	<line x1="70" y1="60" x2="91" y2="60" style="stroke:rgb(0, 0, 0);stroke-linecap:square;stroke-width:2"/>
	<line x1="99" y1="60" x2="120" y2="60" style="stroke:rgb(0, 0, 0);stroke-linecap:square;stroke-width:2"/>
	<line x1="91" y1="46" x2="91" y2="74" style="stroke:rgb(0, 0, 0);stroke-linecap:square;stroke-width:2"/>
	<line x1="99" y1="46" x2="99" y2="74" style="stroke:rgb(0, 0, 0);stroke-linecap:square;stroke-width:2"/>
	<text x="95" y="40" style="font-family:Arial;font-size:11px;text-anchor:middle" dominant-baseline="baseline" transform="rotate(0, 95, 40)">C1</text>
</svg>