<svg xmlns="http://www.w3.org/2000/svg" version="1.1" width="180" height="180">
	<text x="42" y="100" style="font-family:Arial;font-size:12px;text-anchor:end" dominant-baseline="middle" transform="rotate(0, 42, 100)">+</text>
	<line x1="53" y1="100" x2="70" y2="100" style="stroke:rgb(0, 0, 0);stroke-linecap:square;stroke-width:2"/>
	<ellipse cx="50" cy="100" rx="3" ry="3" style="fill-opacity:0;fill:rgb(0, 0, 0);stroke:rgb(0, 0, 0);stroke-width:2"/>
	<line x1="120" y1="60" x2="120" y2="140" style="stroke:rgb(0, 0, 0);stroke-linecap:square;stroke-width:2"/>
	<line x1="70" y1="60" x2="70" y2="140" style="stroke:rgb(0, 0, 0);stroke-linecap:square;stroke-width:2"/>
	<text x="148" y="100" style="font-family:Arial;font-size:12px;text-anchor:start" dominant-baseline="middle" transform="rotate(0, 148, 100)">-</text>
	<line x1="120" y1="100" x2="137" y2="100" style="stroke:rgb(0, 0, 0);stroke-linecap:square;stroke-width:2"/>
	<ellipse cx="140" cy="100" rx="3" ry="3" style="fill-opacity:0;fill:rgb(0, 0, 0);stroke:rgb(0, 0, 0);stroke-width:2"/>
	<line x1="70" y1="140" x2="91" y2="140" style="stroke:rgb(0, 0, 0);stroke-linecap:square;stroke-width:2"/>
	<line x1="99" y1="140" x2="120" y2="140" style="stroke:rgb(0, 0, 0);stroke-linecap:square;stroke-width:2"/>
	<line x1="91" y1="126" x2="91" y2="154" style="stroke:rgb(0, 0, 0);stroke-linecap:square;stroke-width:2"/>
	<line x1="99" y1="126" x2="99" y2="154" style="stroke:rgb(0, 0, 0);stroke-linecap:square;stroke-width:2"/>
	<text x="95" y="120" style="font-family:Arial;font-size:11px;text-anchor:middle" dominant-baseline="baseline" transform="rotate(0, 95, 120)">C2</text>
	<line x1="70" y1="60" x2="91" y2="60" style="stroke:rgb(0, 0, 0);stroke-linecap:square;stroke-width:2"/>
	<line x1="99" y1="60" x2="120" y2="60" style="stroke:rgb(0, 0, 0);stroke-linecap:square;stroke-width:2"/>
	<line x1="91" y1="46" x2="91" y2="74" style="stroke:rgb(0, 0, 0);stroke-linecap:square;stroke-width:2"/>
	<line x1="99" y1="46" x2="99" y2="74" style="stroke:rgb(0, 0, 0);stroke-linecap:square;stroke-width:2"/>
	<text x="95" y="40" style="font-family:Arial;font-size:11px;text-anchor:middle" dominant-baseline="baseline" transform="rotate(0, 95, 40)">C1</text>
	<ellipse cx="70" cy="100" rx="2" ry="2" style="fill-opacity:1;fill:rgb(0, 0, 0);stroke:rgb(0, 0, 0);stroke-width:2"/>
	<ellipse cx="120" cy="100" rx="2" ry="2" style="fill-opacity:1;fill:rgb(0, 0, 0);stroke:rgb(0, 0, 0);stroke-width:2"/>
</svg>