<svg xmlns="http://www.w3.org/2000/svg" version="1.1" width="240" height="160">
	<line x1="170" y1="60" x2="170" y2="120" style="stroke:rgb(0, 0, 0);stroke-linecap:square;stroke-width:2"/>
	<line x1="60" y1="110" x2="60" y2="120" style="stroke:rgb(0, 0, 0);stroke-linecap:square;stroke-width:2"/>
	<line x1="60" y1="90" x2="60" y2="110" style="stroke:rgb(0, 0, 0);stroke-linecap:square;stroke-width:2"/>
	<line x1="60" y1="60" x2="60" y2="90" style="stroke:rgb(0, 0, 0);stroke-linecap:square;stroke-width:2"/>
	<text x="198" y="90" style="font-family:Arial;font-size:12px;text-anchor:start" dominant-baseline="middle" transform="rotate(0, 198, 90)">-</text>
	<line x1="170" y1="90" x2="187" y2="90" style="stroke:rgb(0, 0, 0);stroke-linecap:square;stroke-width:2"/>
	<ellipse cx="190" cy="90" rx="3" ry="3" style="fill-opacity:0;fill:rgb(0, 0, 0);stroke:rgb(0, 0, 0);stroke-width:2"/>
	<text x="32" y="90" style="font-family:Arial;font-size:12px;text-anchor:end" dominant-baseline="middle" transform="rotate(0, 32, 90)">+</text>
	<line x1="43" y1="90" x2="60" y2="90" style="stroke:rgb(0, 0, 0);stroke-linecap:square;stroke-width:2"/>
	<ellipse cx="40" cy="90" rx="3" ry="3" style="fill-opacity:0;fill:rgb(0, 0, 0);stroke:rgb(0, 0, 0);stroke-width:2"/>
	<line x1="60" y1="60" x2="95" y2="60" style="stroke:rgb(0, 0, 0);stroke-linecap:square;stroke-width:2"/>
	<line x1="135" y1="60" x2="170" y2="60" style="stroke:rgb(0, 0, 0);stroke-linecap:square;stroke-width:2"/>
	<rect x="95" y="52" width="40" height="16" style="fill-opacity:0;fill:rgb(0, 0, 0);stroke:rgb(0, 0, 0);stroke-width:2"/>
	<text x="115" y="46" style="font-family:Arial;font-size:11px;text-anchor:middle" dominant-baseline="baseline" transform="rotate(0, 115, 46)">R2</text>
	<line x1="60" y1="120" x2="95" y2="120" style="stroke:rgb(0, 0, 0);stroke-linecap:square;stroke-width:2"/>
	<line x1="135" y1="120" x2="170" y2="120" style="stroke:rgb(0, 0, 0);stroke-linecap:square;stroke-width:2"/>
	<rect x="95" y="112" width="40" height="16" style="fill-opacity:0;fill:rgb(0, 0, 0);stroke:rgb(0, 0, 0);stroke-width:2"/>
	<text x="115" y="106" style="font-family:Arial;font-size:11px;text-anchor:middle" dominant-baseline="baseline" transform="rotate(0, 115, 106)">R1</text>
	<ellipse cx="170" cy="90" rx="2" ry="2" style="fill-opacity:1;fill:rgb(0, 0, 0);stroke:rgb(0, 0, 0);stroke-width:2"/>
	<ellipse cx="60" cy="90" rx="2" ry="2" style="fill-opacity:1;fill:rgb(0, 0, 0);stroke:rgb(0, 0, 0);stroke-width:2"/>
</svg>